<?xml version="1.0" standalone="no"?>
<!DOCTYPE svg PUBLIC "-//W3C//DTD SVG 20010904//EN"
 "http://www.w3.org/TR/2001/REC-SVG-20010904/DTD/svg10.dtd">
<svg version="1.0" xmlns="http://www.w3.org/2000/svg"
 width="260.000000pt" height="260.000000pt" viewBox="0 0 260.000000 260.000000"
 preserveAspectRatio="xMidYMid meet">
<metadata>
Created by potrace 1.14, written by Peter Selinger 2001-2017
</metadata>
<g transform="translate(0.000000,260.000000) scale(0.100000,-0.100000)"
fill="#000000" stroke="none">
<path d="M1852 2012 c-31 -32 -106 -117 -167 -190 -60 -72 -123 -147 -140
-165 -16 -19 -46 -54 -67 -78 -20 -24 -67 -80 -105 -124 -39 -44 -74 -87 -79
-96 -5 -9 -26 -30 -46 -48 l-37 -32 -40 25 c-22 14 -45 36 -52 48 -7 12 -26
37 -43 55 -17 17 -43 47 -59 65 -121 146 -190 227 -210 248 -13 14 -31 37 -40
52 -9 14 -37 40 -63 58 -83 56 -79 90 -81 -616 -2 -424 0 -622 8 -636 24 -46
50 -48 521 -48 l443 0 80 26 c44 15 90 31 103 36 l23 8 -23 29 c-13 16 -25 27
-27 25 -2 -2 -26 16 -52 41 -27 25 -52 45 -58 45 -5 0 -23 21 -39 47 -34 54
-57 81 -122 151 -25 27 -53 61 -64 76 -10 16 -34 34 -52 42 -19 8 -34 18 -34
22 0 5 -13 24 -30 42 -16 18 -30 41 -30 50 0 33 24 84 67 144 24 34 50 75 58
92 7 17 28 45 44 63 17 18 31 39 31 47 0 7 8 18 19 23 10 6 26 27 36 48 10 21
29 46 42 56 12 10 23 25 23 33 0 8 15 29 34 47 19 18 36 41 38 52 2 11 15 26
30 33 14 6 31 26 37 42 5 17 21 34 35 39 15 6 28 23 36 45 8 24 19 38 35 42
12 3 35 19 51 35 20 21 34 27 48 23 21 -7 21 -6 2 15 -11 11 -21 21 -23 21 -2
0 -29 -26 -61 -58z m-1092 -360 c0 -4 14 -20 30 -35 17 -16 30 -39 30 -52 0
-16 9 -28 28 -37 22 -11 26 -19 24 -42 -2 -17 -11 -40 -19 -52 -15 -24 -33
-171 -26 -220 2 -16 0 -56 -5 -89 -8 -47 -7 -64 4 -80 8 -11 14 -29 14 -40 0
-11 7 -31 17 -44 13 -19 14 -28 5 -42 -7 -10 -12 -25 -12 -32 0 -7 -11 -28
-25 -47 -14 -19 -25 -41 -25 -50 0 -9 -11 -27 -25 -40 -14 -13 -28 -38 -31
-57 -7 -39 -19 -50 -29 -25 -9 19 -6 1017 2 1039 4 10 11 5 24 -17 11 -17 19
-34 19 -38z"/>
<path d="M1907 677 c-4 -10 -7 -27 -7 -38 0 -10 -4 -19 -10 -19 -5 0 -7 -7 -4
-15 7 -18 33 -20 40 -2 2 7 1 31 -4 52 -6 31 -10 36 -15 22z"/>
</g>
</svg>
